<svg width="282" height="206" viewBox="0 0 282 206" fill="none" xmlns="http://www.w3.org/2000/svg">
    <g clip-path="url(#clip0_12_356)">
        <path d="M228.713 195.643C228.983 194.578 229.388 193.573 229.913 192.628C230.438 191.683 231.008 190.933 231.608 190.363C232.208 189.793 232.748 189.508 233.243 189.508C233.363 189.508 233.453 189.583 233.513 189.718C233.573 189.853 233.603 190.123 233.603 190.543C233.603 191.278 233.453 191.953 233.138 192.583C232.823 193.213 232.388 193.753 231.818 194.188C231.188 194.653 230.153 195.148 228.713 195.643ZM227.213 194.308C226.538 195.763 226.193 197.068 226.193 198.223C226.193 199.273 226.463 200.068 226.988 200.623C227.528 201.178 228.263 201.448 229.208 201.448C230.153 201.448 230.993 201.148 231.818 200.548C232.643 199.948 233.303 199.228 233.798 198.388L233.438 198.208C232.403 199.723 231.233 200.488 229.928 200.488C228.878 200.488 228.353 199.753 228.353 198.298C228.353 197.578 228.428 196.843 228.608 196.078C230.393 195.493 231.968 194.743 233.363 193.813C234.743 192.883 235.433 191.803 235.433 190.573C235.433 190.093 235.268 189.718 234.953 189.448C234.638 189.193 234.233 189.058 233.738 189.058C232.388 189.058 231.128 189.568 229.973 190.588C228.818 191.608 227.903 192.838 227.228 194.293M215.828 190.468C215.828 190.633 215.768 190.918 215.663 191.308L212.918 201.103H214.898L215.303 199.438C215.828 197.638 216.443 196.003 217.148 194.533C217.868 193.063 218.588 191.893 219.323 191.053C220.058 190.213 220.718 189.778 221.303 189.778C221.798 189.778 222.038 190.048 222.038 190.573C222.038 190.813 221.963 191.188 221.813 191.683L219.638 198.208C219.383 198.988 219.248 199.573 219.248 199.993C219.248 200.308 219.308 200.563 219.428 200.743C219.698 201.178 220.178 201.403 220.868 201.403C222.158 201.403 223.088 200.623 223.628 199.048L224.198 197.383H223.763L223.463 198.223C223.163 199.093 222.863 199.693 222.578 200.038C222.293 200.383 222.008 200.548 221.693 200.548C221.333 200.548 221.153 200.368 221.153 200.008C221.153 199.798 221.213 199.498 221.333 199.138L223.553 192.463C223.778 191.803 223.898 191.233 223.898 190.723C223.898 189.583 223.283 189.013 222.053 189.013C220.988 189.013 220.013 189.493 219.113 190.453C218.228 191.413 217.298 193.033 216.323 195.343L217.118 192.223C217.328 191.398 217.433 190.783 217.433 190.378C217.433 189.973 217.328 189.613 217.133 189.388C216.923 189.148 216.578 189.028 216.098 189.028C214.838 189.028 213.923 189.808 213.383 191.383L212.813 193.048H213.248L213.548 192.208C213.863 191.323 214.163 190.723 214.418 190.378C214.673 190.048 214.973 189.883 215.303 189.883C215.633 189.883 215.798 190.078 215.798 190.453M202.823 198.973C202.823 197.608 203.033 196.183 203.453 194.698C203.873 193.213 204.428 191.983 205.118 190.993C205.808 190.003 206.543 189.508 207.323 189.508C207.758 189.508 208.088 189.673 208.298 189.988C208.508 190.303 208.613 190.813 208.613 191.503C208.613 192.868 208.403 194.293 207.983 195.778C207.563 197.263 207.008 198.493 206.318 199.483C205.628 200.473 204.893 200.968 204.113 200.968C203.678 200.968 203.348 200.803 203.138 200.488C202.928 200.173 202.823 199.663 202.823 198.973ZM201.653 193.963C201.128 195.343 200.858 196.633 200.858 197.833C200.858 199.033 201.128 199.918 201.698 200.518C202.253 201.118 203.018 201.418 203.993 201.418C205.313 201.418 206.483 200.938 207.488 199.993C208.493 199.048 209.258 197.878 209.798 196.498C210.338 195.118 210.593 193.828 210.593 192.628C210.593 191.428 210.308 190.543 209.753 189.943C209.198 189.343 208.433 189.043 207.458 189.043C206.138 189.043 204.968 189.523 203.963 190.468C202.958 191.413 202.193 192.583 201.653 193.963ZM198.338 186.673C198.773 186.673 199.178 186.493 199.523 186.148C199.868 185.803 200.048 185.398 200.048 184.933C200.048 184.603 199.943 184.318 199.733 184.093C199.523 183.868 199.238 183.748 198.893 183.748C198.458 183.748 198.068 183.928 197.723 184.288C197.378 184.648 197.213 185.053 197.213 185.503C197.213 185.833 197.318 186.118 197.528 186.343C197.738 186.568 198.023 186.673 198.353 186.673M196.703 190.468C196.703 190.663 196.643 190.948 196.523 191.308L194.078 198.223C193.808 198.988 193.673 199.588 193.673 200.023C193.673 200.953 194.213 201.418 195.278 201.418C195.863 201.418 196.388 201.238 196.883 200.863C197.378 200.503 197.783 199.903 198.083 199.063L198.683 197.398H198.248L197.933 198.238C197.618 199.093 197.318 199.693 197.048 200.038C196.778 200.383 196.478 200.563 196.163 200.563C195.803 200.563 195.623 200.368 195.623 199.993C195.623 199.798 195.683 199.513 195.803 199.153L198.248 192.238C198.488 191.563 198.608 190.978 198.608 190.483C198.608 189.523 198.113 189.043 197.093 189.043C196.523 189.043 195.998 189.223 195.488 189.568C194.978 189.913 194.573 190.528 194.273 191.398L193.673 193.063H194.108L194.423 192.223C194.723 191.398 195.023 190.813 195.293 190.438C195.563 190.078 195.878 189.898 196.223 189.898C196.568 189.898 196.733 190.093 196.733 190.468M191.618 190.258L181.313 201.103H181.928C182.228 200.788 182.543 200.563 182.858 200.443C183.173 200.323 183.548 200.263 183.983 200.263C184.373 200.263 184.718 200.308 185.018 200.383C185.318 200.473 185.648 200.593 186.038 200.758C186.368 200.908 186.683 201.028 186.968 201.118C187.253 201.208 187.568 201.238 187.913 201.238C188.813 201.238 189.473 200.998 189.908 200.548C190.343 200.083 190.553 199.513 190.553 198.838C190.553 198.253 190.358 197.788 189.983 197.428C189.608 197.068 189.053 196.798 188.333 196.633L188.198 196.978C188.738 197.083 189.158 197.293 189.503 197.578C189.833 197.878 189.998 198.223 189.998 198.613C189.998 199.003 189.893 199.273 189.668 199.468C189.443 199.663 189.143 199.753 188.738 199.753C188.483 199.753 188.228 199.723 188.003 199.663C187.763 199.603 187.478 199.513 187.148 199.393C186.818 199.273 186.548 199.183 186.338 199.123C186.128 199.063 185.903 199.033 185.663 199.033C185.258 199.033 184.838 199.123 184.418 199.288C183.998 199.468 183.443 199.768 182.768 200.218L193.073 189.373H192.458C192.158 189.688 191.843 189.913 191.528 190.033C191.213 190.153 190.838 190.213 190.403 190.213C190.013 190.213 189.668 190.168 189.368 190.093C189.068 190.003 188.738 189.883 188.348 189.718C188.018 189.568 187.703 189.448 187.418 189.358C187.133 189.268 186.818 189.238 186.473 189.238C185.573 189.238 184.913 189.463 184.478 189.928C184.043 190.393 183.833 190.963 183.833 191.623C183.833 192.208 184.028 192.673 184.403 193.033C184.778 193.393 185.333 193.663 186.053 193.828L186.188 193.483C185.648 193.378 185.228 193.168 184.883 192.883C184.553 192.583 184.373 192.238 184.373 191.848C184.373 191.458 184.478 191.188 184.703 190.993C184.928 190.798 185.228 190.708 185.633 190.708C185.888 190.708 186.143 190.738 186.368 190.798C186.608 190.858 186.893 190.948 187.223 191.068C187.553 191.188 187.823 191.278 188.033 191.338C188.243 191.398 188.468 191.428 188.708 191.428C189.113 191.428 189.533 191.338 189.953 191.173C190.373 191.008 190.928 190.693 191.603 190.243M171.893 198.913C171.893 197.608 172.148 196.213 172.628 194.728C173.123 193.243 173.738 191.998 174.473 190.978C175.208 189.958 175.898 189.463 176.558 189.463C176.948 189.463 177.263 189.643 177.488 190.003C177.713 190.363 177.818 190.858 177.818 191.473C177.818 191.683 177.818 191.848 177.803 191.968L177.398 193.588C177.038 194.818 176.558 195.988 175.988 197.068C175.418 198.148 174.833 199.033 174.248 199.678C173.648 200.338 173.138 200.668 172.718 200.668C172.463 200.668 172.268 200.533 172.133 200.248C171.998 199.978 171.923 199.528 171.923 198.898M170.903 194.488C170.243 196.018 169.928 197.383 169.928 198.628C169.928 199.468 170.108 200.128 170.483 200.638C170.843 201.133 171.383 201.388 172.088 201.388C172.913 201.388 173.693 200.998 174.443 200.233C175.193 199.468 175.943 198.223 176.678 196.528L176.273 198.178C176.243 198.283 176.168 198.538 176.063 198.928C175.958 199.318 175.898 199.678 175.898 199.993C175.898 200.308 175.973 200.563 176.108 200.788C176.228 200.968 176.393 201.118 176.603 201.223C176.813 201.328 177.068 201.388 177.353 201.388C177.848 201.388 178.343 201.208 178.808 200.833C179.273 200.458 179.663 199.858 179.978 199.018L180.548 197.353H180.113L179.843 198.193C179.348 199.753 178.748 200.518 178.088 200.518C177.758 200.518 177.593 200.323 177.593 199.948C177.593 199.798 177.623 199.633 177.668 199.453C177.713 199.273 177.743 199.153 177.758 199.093L180.608 188.998C180.038 189.178 179.348 189.283 178.508 189.313L178.148 190.723C178.103 190.168 177.953 189.748 177.683 189.448C177.428 189.148 177.098 188.998 176.678 188.998C175.598 188.998 174.533 189.538 173.483 190.603C172.433 191.668 171.578 192.958 170.918 194.488M165.413 189.778L161.258 205.348C161.798 205.168 162.488 205.063 163.313 205.033L167.393 189.778H170.093L170.228 189.328H167.528V189.298L167.783 188.323C168.098 187.093 168.368 186.163 168.578 185.533C168.788 184.903 169.058 184.438 169.373 184.153C169.793 183.763 170.243 183.553 170.693 183.553C170.978 183.553 171.233 183.613 171.428 183.718C171.638 183.838 171.743 183.958 171.743 184.093C171.353 184.213 171.023 184.408 170.798 184.678C170.558 184.948 170.438 185.263 170.438 185.623C170.438 185.863 170.498 186.058 170.663 186.193C170.828 186.328 171.053 186.403 171.353 186.403C171.773 186.403 172.133 186.238 172.433 185.908C172.733 185.578 172.883 185.218 172.883 184.828C172.883 184.348 172.688 183.973 172.298 183.658C171.908 183.358 171.383 183.208 170.708 183.208C170.168 183.208 169.658 183.313 169.148 183.508C168.638 183.718 168.203 183.988 167.858 184.348C167.363 184.843 166.928 185.473 166.568 186.253C166.208 187.033 165.863 188.053 165.533 189.298V189.328H163.478L163.343 189.778H165.398H165.413ZM154.253 195.583C154.523 194.518 154.928 193.513 155.453 192.568C155.978 191.623 156.548 190.873 157.148 190.303C157.748 189.733 158.288 189.448 158.783 189.448C158.903 189.448 158.993 189.523 159.053 189.658C159.113 189.793 159.143 190.063 159.143 190.483C159.143 191.218 158.993 191.893 158.678 192.523C158.363 193.153 157.928 193.693 157.358 194.128C156.728 194.593 155.693 195.088 154.253 195.583ZM152.753 194.248C152.078 195.703 151.733 197.008 151.733 198.163C151.733 199.213 152.003 200.008 152.528 200.563C153.053 201.118 153.803 201.388 154.748 201.388C155.693 201.388 156.533 201.088 157.358 200.488C158.183 199.888 158.843 199.168 159.338 198.328L158.978 198.148C157.943 199.663 156.773 200.428 155.453 200.428C154.403 200.428 153.878 199.693 153.878 198.238C153.878 197.518 153.968 196.783 154.133 196.018C155.918 195.433 157.493 194.683 158.888 193.753C160.268 192.823 160.973 191.743 160.973 190.513C160.973 190.033 160.808 189.658 160.493 189.388C160.178 189.133 159.773 188.998 159.278 188.998C157.928 188.998 156.668 189.508 155.513 190.528C154.358 191.548 153.443 192.778 152.753 194.233M145.298 190.363C145.298 190.618 145.238 190.918 145.133 191.248L142.388 201.043H144.368L144.818 199.243C145.673 196.333 146.588 193.993 147.548 192.223C148.508 190.453 149.408 189.568 150.233 189.568C150.338 189.568 150.428 189.598 150.488 189.658C150.173 189.793 149.918 189.988 149.738 190.228C149.558 190.468 149.468 190.768 149.468 191.113C149.468 191.368 149.558 191.578 149.723 191.713C149.888 191.863 150.113 191.923 150.383 191.923C150.803 191.923 151.178 191.758 151.508 191.443C151.823 191.128 151.988 190.738 151.988 190.273C151.988 189.898 151.868 189.583 151.628 189.343C151.388 189.103 151.058 188.983 150.653 188.983C149.753 188.983 148.943 189.448 148.223 190.363C147.503 191.278 146.723 192.853 145.913 195.058L146.648 192.178C146.858 191.353 146.963 190.738 146.963 190.303C146.963 189.418 146.528 188.983 145.658 188.983C144.368 188.983 143.438 189.763 142.898 191.338L142.328 193.003H142.763L143.063 192.163C143.348 191.323 143.633 190.723 143.918 190.363C144.203 190.003 144.503 189.823 144.848 189.823C145.193 189.823 145.328 190.003 145.328 190.348M135.023 190.348C135.023 190.603 134.963 190.903 134.858 191.233L132.113 201.028H134.093L134.558 199.228C135.413 196.318 136.313 193.978 137.288 192.208C138.248 190.438 139.148 189.553 139.973 189.553C140.078 189.553 140.168 189.583 140.228 189.643C139.913 189.778 139.658 189.973 139.478 190.213C139.298 190.453 139.208 190.753 139.208 191.098C139.208 191.353 139.298 191.563 139.463 191.698C139.628 191.848 139.853 191.908 140.123 191.908C140.543 191.908 140.918 191.743 141.248 191.428C141.563 191.113 141.728 190.723 141.728 190.258C141.728 189.883 141.608 189.568 141.368 189.328C141.128 189.088 140.798 188.968 140.393 188.968C139.493 188.968 138.683 189.433 137.963 190.348C137.243 191.263 136.463 192.838 135.638 195.043L136.373 192.163C136.583 191.338 136.688 190.723 136.688 190.288C136.688 189.403 136.253 188.968 135.383 188.968C134.093 188.968 133.163 189.748 132.623 191.323L132.053 192.988H132.488L132.788 192.148C133.073 191.308 133.358 190.708 133.643 190.348C133.928 189.988 134.228 189.808 134.573 189.808C134.918 189.808 135.053 189.988 135.053 190.333M122.108 198.898C122.108 197.533 122.318 196.108 122.738 194.623C123.158 193.138 123.713 191.908 124.403 190.918C125.093 189.928 125.828 189.433 126.608 189.433C127.043 189.433 127.373 189.598 127.583 189.913C127.793 190.228 127.898 190.738 127.898 191.428C127.898 192.793 127.688 194.218 127.268 195.703C126.848 197.188 126.293 198.418 125.603 199.408C124.913 200.398 124.178 200.893 123.398 200.893C122.963 200.893 122.633 200.728 122.423 200.413C122.213 200.098 122.108 199.588 122.108 198.898ZM120.938 193.888C120.398 195.268 120.143 196.558 120.143 197.758C120.143 198.958 120.413 199.843 120.983 200.443C121.538 201.043 122.303 201.343 123.278 201.343C124.598 201.343 125.768 200.863 126.773 199.918C127.778 198.973 128.543 197.803 129.083 196.423C129.608 195.043 129.878 193.753 129.878 192.553C129.878 191.353 129.608 190.468 129.038 189.868C128.483 189.268 127.718 188.968 126.743 188.968C125.423 188.968 124.253 189.448 123.248 190.393C122.243 191.338 121.478 192.508 120.938 193.888ZM112.448 198.148C112.313 198.628 112.238 199.048 112.238 199.453C112.238 200.053 112.403 200.518 112.733 200.848C113.063 201.178 113.573 201.358 114.263 201.358C115.013 201.358 115.643 201.163 116.153 200.773C116.663 200.383 117.083 199.723 117.398 198.778L117.878 197.338H117.443L117.128 198.223C116.813 199.093 116.483 199.693 116.153 200.023C115.823 200.353 115.478 200.518 115.088 200.518C114.803 200.518 114.563 200.443 114.383 200.293C114.203 200.143 114.113 199.918 114.113 199.603C114.113 199.453 114.128 199.288 114.173 199.108L116.828 189.763H119.903L119.978 189.313H116.963L118.028 185.518C117.488 185.698 116.798 185.803 115.973 185.833L114.968 189.298H112.913L112.793 189.748H114.848L112.433 198.148H112.448ZM97.4926 195.553C97.7626 194.488 98.1676 193.483 98.6926 192.538C99.2176 191.593 99.7876 190.843 100.388 190.273C100.988 189.703 101.528 189.418 102.023 189.418C102.143 189.418 102.233 189.493 102.293 189.628C102.353 189.763 102.383 190.033 102.383 190.453C102.383 191.188 102.233 191.863 101.918 192.493C101.603 193.123 101.168 193.663 100.598 194.098C99.9676 194.563 98.9326 195.058 97.4926 195.553ZM95.9926 194.218C95.3176 195.673 94.9726 196.978 94.9726 198.133C94.9726 199.183 95.2426 199.978 95.7676 200.533C96.2926 201.088 97.0426 201.358 97.9876 201.358C98.9326 201.358 99.7726 201.058 100.598 200.458C101.423 199.858 102.083 199.138 102.578 198.298L102.218 198.118C101.183 199.633 100.013 200.398 98.6926 200.398C97.6426 200.398 97.1176 199.663 97.1176 198.208C97.1176 197.488 97.2076 196.753 97.3726 195.988C99.1576 195.403 100.733 194.653 102.128 193.723C103.508 192.793 104.213 191.713 104.213 190.483C104.213 190.003 104.048 189.628 103.733 189.358C103.418 189.103 103.013 188.968 102.518 188.968C101.168 188.968 99.9076 189.478 98.7526 190.498C97.5976 191.518 96.6826 192.748 95.9926 194.203M87.1276 195.538C87.3976 194.473 87.8026 193.468 88.3276 192.523C88.8526 191.578 89.4226 190.828 90.0226 190.258C90.6226 189.688 91.1626 189.403 91.6576 189.403C91.7776 189.403 91.8676 189.478 91.9276 189.613C91.9876 189.748 92.0176 190.018 92.0176 190.438C92.0176 191.173 91.8676 191.848 91.5526 192.478C91.2376 193.108 90.8026 193.648 90.2326 194.083C89.6026 194.548 88.5676 195.043 87.1276 195.538ZM85.6276 194.203C84.9526 195.658 84.6076 196.963 84.6076 198.118C84.6076 199.168 84.8776 199.963 85.4026 200.518C85.9276 201.073 86.6776 201.343 87.6226 201.343C88.5676 201.343 89.4076 201.043 90.2326 200.443C91.0576 199.843 91.7176 199.123 92.2126 198.283L91.8526 198.103C90.8176 199.618 89.6476 200.383 88.3276 200.383C87.2776 200.383 86.7526 199.648 86.7526 198.193C86.7526 197.473 86.8426 196.738 87.0076 195.973C88.7926 195.388 90.3676 194.638 91.7626 193.708C93.1426 192.778 93.8476 191.698 93.8476 190.468C93.8476 189.988 93.6826 189.613 93.3676 189.343C93.0526 189.088 92.6476 188.953 92.1526 188.953C90.8026 188.953 89.5426 189.463 88.3876 190.483C87.2326 191.503 86.3176 192.733 85.6276 194.188M80.0176 189.718L75.8626 205.288C76.4176 205.108 77.0926 205.003 77.9176 204.973L82.0126 189.718H84.7126L84.8476 189.268H82.1476V189.238L82.4026 188.263C82.7176 187.033 82.9876 186.103 83.1976 185.473C83.4076 184.843 83.6776 184.378 83.9926 184.093C84.4126 183.703 84.8626 183.493 85.3126 183.493C85.5976 183.493 85.8526 183.553 86.0626 183.658C86.2726 183.778 86.3626 183.898 86.3626 184.033C85.9726 184.153 85.6576 184.348 85.4176 184.618C85.1776 184.888 85.0576 185.203 85.0576 185.563C85.0426 185.803 85.1176 185.998 85.2826 186.133C85.4476 186.268 85.6726 186.343 85.9726 186.343C86.3926 186.343 86.7676 186.178 87.0526 185.848C87.3526 185.518 87.5026 185.158 87.5026 184.768C87.5026 184.288 87.3076 183.913 86.9176 183.598C86.5276 183.283 86.0026 183.148 85.3276 183.148C84.8026 183.148 84.2776 183.253 83.7676 183.448C83.2576 183.658 82.8226 183.928 82.4776 184.288C81.9826 184.783 81.5476 185.413 81.1876 186.193C80.8276 186.973 80.4826 187.993 80.1526 189.238V189.268H78.0976L77.9626 189.718H80.0176ZM72.1126 189.718L67.9576 205.288C68.5126 205.108 69.1876 205.003 70.0126 204.973L74.1076 189.718H76.8076L76.9426 189.268H74.2426V189.238L74.4976 188.263C74.8126 187.033 75.0826 186.103 75.2926 185.473C75.5026 184.843 75.7726 184.378 76.0876 184.093C76.5076 183.703 76.9576 183.493 77.4076 183.493C77.6926 183.493 77.9476 183.553 78.1426 183.658C78.3526 183.778 78.4576 183.898 78.4576 184.033C78.0676 184.153 77.7376 184.348 77.5126 184.618C77.2726 184.888 77.1526 185.203 77.1526 185.563C77.1526 185.803 77.2126 185.998 77.3776 186.133C77.5426 186.268 77.7676 186.343 78.0676 186.343C78.4876 186.343 78.8476 186.178 79.1476 185.848C79.4476 185.518 79.5976 185.158 79.5976 184.768C79.5976 184.288 79.4026 183.913 79.0126 183.598C78.6226 183.283 78.0976 183.148 77.4226 183.148C76.8826 183.148 76.3726 183.253 75.8626 183.448C75.3526 183.658 74.9176 183.928 74.5726 184.288C74.0776 184.783 73.6426 185.413 73.2826 186.193C72.9226 186.973 72.5776 187.993 72.2476 189.238V189.268H70.1926L70.0576 189.718H72.1126ZM59.2576 198.868C59.2576 197.503 59.4676 196.078 59.8876 194.593C60.3076 193.108 60.8626 191.878 61.5526 190.888C62.2426 189.898 62.9776 189.403 63.7576 189.403C64.1926 189.403 64.5226 189.568 64.7326 189.883C64.9426 190.198 65.0476 190.708 65.0476 191.398C65.0476 192.763 64.8376 194.188 64.4176 195.673C63.9976 197.158 63.4426 198.388 62.7526 199.378C62.0626 200.368 61.3276 200.863 60.5476 200.863C60.1126 200.863 59.7826 200.698 59.5726 200.383C59.3626 200.068 59.2576 199.558 59.2576 198.868ZM58.0876 193.858C57.5476 195.238 57.2926 196.528 57.2926 197.728C57.2926 198.928 57.5626 199.813 58.1326 200.413C58.6876 201.013 59.4526 201.313 60.4276 201.313C61.7476 201.313 62.9176 200.833 63.9226 199.888C64.9276 198.943 65.6926 197.773 66.2326 196.393C66.7726 195.013 67.0276 193.723 67.0276 192.523C67.0276 191.323 66.7576 190.438 66.2026 189.838C65.6476 189.238 64.8826 188.938 63.9076 188.938C62.5876 188.938 61.4176 189.418 60.4126 190.363C59.4076 191.308 58.6426 192.478 58.1026 193.858M47.6626 193.978C47.0776 195.388 46.7926 196.723 46.7926 197.953C46.7926 199.048 47.0626 199.888 47.6026 200.458C48.1426 201.028 48.8776 201.313 49.8076 201.313C50.7376 201.313 51.5926 201.013 52.4176 200.413C53.2426 199.813 53.9026 199.093 54.3976 198.253L53.9476 198.073C52.9126 199.588 51.7726 200.353 50.5276 200.353C50.0176 200.353 49.6276 200.173 49.3576 199.813C49.0726 199.453 48.9376 198.898 48.9376 198.163C48.9376 196.678 49.1776 195.253 49.6576 193.888C50.1376 192.538 50.7526 191.443 51.5026 190.618C52.2526 189.793 53.0176 189.388 53.7676 189.388C54.4876 189.388 54.9976 189.628 55.3276 190.093C54.8476 190.183 54.4576 190.393 54.1126 190.693C53.7826 191.008 53.6176 191.383 53.6176 191.803C53.6176 192.058 53.6926 192.283 53.8576 192.448C54.0226 192.613 54.2476 192.703 54.5476 192.703C55.0276 192.703 55.4026 192.523 55.7176 192.148C56.0176 191.773 56.1676 191.353 56.1676 190.888C56.1676 190.288 55.9276 189.823 55.4626 189.478C54.9976 189.133 54.4126 188.953 53.7076 188.953C52.3726 188.953 51.1726 189.448 50.1226 190.408C49.0726 191.383 48.2626 192.583 47.6776 193.993M38.7376 104.503L40.0426 91.4076C36.9976 89.8026 33.3376 88.7976 29.0626 89.0226C28.0576 89.0676 27.0076 89.1876 25.9426 89.3826C25.8526 89.3976 25.7626 89.4126 25.6726 89.4276C13.0726 91.8726 9.66763 99.8076 8.73763 103.948C8.39263 105.508 8.39263 106.528 8.39263 106.528C7.85263 113.158 7.41763 116.833 1.01263 117.913V122.098L7.95763 121.573V154.543C7.95763 161.488 7.95763 164.863 1.55263 165.733V167.248H29.2276V165.733C21.7276 165.403 21.7276 161.608 21.7276 154.543V120.733L29.5126 120.148C29.5126 120.148 29.5876 120.148 29.6176 120.148C31.6576 120.013 33.3076 121.753 33.1126 123.778L34.0876 123.718L34.2526 122.098L35.1376 113.218L29.2276 113.623L21.7276 114.133V106.963C21.7276 105.478 21.7276 102.238 22.9876 99.4926C24.1276 97.0026 26.2876 94.9026 30.4276 94.9026C30.8776 94.9026 31.4476 94.9626 32.0776 95.1426C34.3726 95.7876 37.3426 97.9927 37.0876 104.638L38.6026 104.488L38.7376 104.503ZM72.1126 136.198C72.1126 142.933 71.9026 148.903 69.6076 153.148C67.1026 157.603 61.8976 160.648 56.7976 160.648C51.3676 160.648 48.6526 156.523 48.6526 153.148C48.6526 146.848 54.2926 139.783 72.1126 136.198ZM86.3476 152.818L86.4076 129.163C86.4076 119.608 84.7726 111.238 66.7426 111.238C65.5426 111.238 64.3726 111.283 63.2026 111.358L40.5976 112.888L38.7226 131.803L39.8476 131.683C41.5876 127.768 46.0126 118.078 61.2226 118.078C63.6076 118.078 68.6026 118.408 70.8976 122.098C71.9776 124.048 71.9326 126.313 71.9326 131.098C53.9026 134.473 33.9076 139.783 33.9076 154.993C33.9076 162.598 39.9976 168.463 51.0676 168.463C55.9576 168.463 61.9276 167.263 66.8176 164.113C69.5326 162.268 70.8376 160.423 72.4726 158.143C73.1176 162.493 73.7776 164.008 76.2676 167.263H93.6526V165.748C88.5526 164.548 86.3776 162.268 86.3776 152.818M110.138 112.753L89.7226 114.148V115.663C96.1276 116.533 96.1276 120.013 96.1276 126.853V153.028C96.1276 161.068 99.8176 168.448 109.928 168.448C116.663 168.448 124.163 165.088 133.058 156.493C133.388 161.713 133.718 163.438 135.008 167.248H153.698V165.613C147.503 165.073 146.963 161.698 146.963 152.248V112.708L126.218 114.118V115.633C133.058 116.278 133.058 119.863 133.058 126.823V137.038C133.058 143.008 132.413 146.923 130.238 151.273C128.063 155.623 122.423 159.418 117.638 159.418C115.253 159.418 112.748 158.008 111.443 155.938C110.138 153.763 110.138 149.308 110.138 147.463V112.723V112.753ZM176.573 70.8276C176.333 70.6176 176.048 70.3776 175.733 70.1676C175.583 70.0626 175.418 70.0026 175.238 69.9126C175.208 69.8976 175.193 69.8826 175.163 69.8676C175.133 69.8376 175.118 69.7926 175.088 69.7626C174.923 69.5077 174.788 69.2676 174.623 69.0426C174.083 68.3376 173.588 67.8576 173.588 67.8576L173.468 67.9776C173.468 67.2276 173.468 65.0526 173.468 61.9026C173.468 57.6576 173.498 51.7026 173.543 45.2076C173.693 44.7276 173.783 44.2326 173.768 43.7226C173.768 43.3176 173.678 42.9126 173.558 42.5226C173.558 40.4526 173.588 38.3526 173.588 36.2526L173.648 36.1926L173.588 36.1326C173.588 34.0926 173.603 32.0526 173.618 30.0576C173.708 29.7276 173.768 29.3976 173.768 29.0526C173.768 28.6626 173.723 28.2876 173.633 27.8976C173.633 25.7376 173.648 23.6376 173.663 21.6276C173.693 13.0176 173.693 6.23765 173.693 4.69265C173.858 4.52765 174.248 4.12265 174.638 3.59765C174.803 3.37265 174.938 3.11765 175.103 2.87765C175.133 2.84765 175.148 2.80265 175.178 2.77265C175.208 2.75765 175.223 2.74265 175.253 2.72765C175.418 2.63765 175.583 2.57765 175.748 2.47265C175.973 2.32265 176.183 2.15765 176.378 1.99265C176.378 4.76765 176.378 11.5626 176.408 19.9176C176.453 34.7676 176.588 54.4776 176.588 64.8726C176.588 67.5876 176.588 69.6576 176.588 70.8576M175.553 1.18265C175.388 1.37765 175.238 1.58765 175.073 1.81265C174.968 1.96265 174.908 2.12765 174.818 2.30765C174.803 2.33765 174.788 2.36765 174.773 2.38265C174.743 2.41265 174.713 2.42765 174.668 2.45765C174.413 2.62265 174.173 2.75765 173.948 2.92265C173.423 3.31265 173.033 3.70265 172.853 3.86765L149.093 3.83765C148.928 3.82265 148.748 3.79265 148.583 3.79265C148.478 3.79265 148.388 3.82265 148.283 3.82265H134.048C134.048 3.82265 133.943 3.79265 133.898 3.79265C133.823 3.79265 133.733 3.80765 133.658 3.80765L109.493 3.77765C109.298 3.58265 108.953 3.26765 108.488 2.90765C108.263 2.74265 108.008 2.60765 107.768 2.44265C107.738 2.41265 107.693 2.39765 107.663 2.36765C107.648 2.35265 107.633 2.32265 107.618 2.29265C107.528 2.12765 107.468 1.96265 107.363 1.79765C107.228 1.60265 107.093 1.42265 106.943 1.25765L175.538 1.18265H175.553ZM106.688 2.48765C106.838 2.59265 107.003 2.65265 107.183 2.74265C107.213 2.75765 107.243 2.77265 107.258 2.78765C107.288 2.81765 107.303 2.84765 107.333 2.89265C107.498 3.14765 107.633 3.38765 107.798 3.61265C108.143 4.07765 108.473 4.42265 108.668 4.61765L108.728 67.9776C108.548 68.1576 108.188 68.5476 107.798 69.0576C107.633 69.2826 107.498 69.5376 107.333 69.7776C107.303 69.8076 107.288 69.8526 107.258 69.8826C107.243 69.8976 107.213 69.9126 107.183 69.9276C107.018 70.0176 106.853 70.0776 106.688 70.1826C106.463 70.3326 106.268 70.4976 106.073 70.6476L106.133 2.05265C106.298 2.18765 106.478 2.33765 106.673 2.47265M172.793 46.5726C172.823 52.5276 172.853 57.9576 172.853 61.9026C172.853 65.0226 172.853 67.1976 172.853 67.9776C171.098 67.9626 162.158 67.8876 151.493 67.8276C151.583 67.7526 151.673 67.7076 151.763 67.6176L151.793 67.6476C151.793 67.6476 154.553 64.9326 157.943 61.3626C158.978 60.2826 160.028 59.0976 161.138 57.9276C161.303 57.7626 161.453 57.5826 161.618 57.4176C161.723 57.3126 161.843 57.2076 161.963 57.1026C162.698 56.4426 163.448 55.8126 164.153 55.1526C168.713 50.9076 172.538 46.9626 172.538 46.9626L172.508 46.9326C172.613 46.8276 172.688 46.7076 172.778 46.5876M172.718 37.0476C172.718 38.3826 172.733 39.7176 172.748 41.0526C172.628 40.9026 172.508 40.7376 172.358 40.6026L171.713 39.9876C171.713 39.9876 171.173 39.4626 170.798 39.1026C171.353 38.5026 172.133 37.6626 172.703 37.0926C172.703 37.0926 172.718 37.0776 172.733 37.0626M172.703 31.8126C172.703 32.9376 172.703 34.0776 172.718 35.2176C172.448 34.9176 172.133 34.5726 171.803 34.2276C171.548 33.9576 171.293 33.7026 171.053 33.4626L171.713 32.8176L172.358 32.2026C172.493 32.0826 172.583 31.9326 172.703 31.7976M151.478 4.99265C161.678 4.99265 170.318 4.96265 172.478 4.96265C172.478 6.82265 172.478 13.4226 172.508 21.7026C172.508 23.1276 172.508 24.6126 172.523 26.1276C172.463 26.0526 172.418 25.9776 172.358 25.9176L172.388 25.8876C172.388 25.8876 169.658 23.1276 166.088 19.7226C165.008 18.6876 163.823 17.6226 162.638 16.5276C162.473 16.3626 162.293 16.2126 162.128 16.0476C162.023 15.9276 161.918 15.8226 161.813 15.7026C161.153 14.9676 160.523 14.2176 159.863 13.4976C155.603 8.92265 151.658 5.08265 151.658 5.08265L151.628 5.11265C151.583 5.08264 151.538 5.05265 151.508 5.02264M142.148 5.02264C143.288 5.02264 144.428 5.02264 145.568 5.02264C145.478 5.09764 145.373 5.17265 145.283 5.26265L144.668 5.90765C144.668 5.90765 144.248 6.37265 143.948 6.71765C143.393 6.20765 142.688 5.53265 142.148 5.02264ZM141.113 5.02264H141.308C141.308 5.02264 141.338 5.05265 141.353 5.06765C141.428 5.14264 141.518 5.24765 141.608 5.35265C142.523 6.37265 144.098 8.18764 144.098 8.18764C144.893 9.05764 145.253 10.1826 145.208 11.2776C145.163 12.2976 144.758 13.2876 143.993 14.0526C143.783 13.8576 143.588 13.6626 143.393 13.4676C142.343 12.4476 141.383 11.5626 141.383 11.5626L141.083 11.8476L140.783 11.5626C140.783 11.5626 139.838 12.4476 138.773 13.4826C138.608 13.6476 138.428 13.8126 138.248 13.9926C137.543 13.2276 137.153 12.2676 137.108 11.2926C137.063 10.1976 137.438 9.08765 138.233 8.21765C138.278 8.17265 139.088 7.34765 139.838 6.49265C140.333 5.93765 140.798 5.38265 141.083 5.03765M136.598 5.03765C137.723 5.03765 138.863 5.03765 140.003 5.03765C139.748 5.27765 139.448 5.54765 139.148 5.81765C138.818 6.13265 138.503 6.44765 138.233 6.71765L137.468 5.90765L136.853 5.26265C136.763 5.17265 136.673 5.11265 136.583 5.03765M109.643 26.0676V5.03765C109.643 5.03765 119.048 5.03765 130.598 5.00765C130.568 5.03765 130.538 5.05265 130.508 5.08265L130.478 5.05265C130.478 5.05265 127.718 7.78265 124.328 11.3676C123.293 12.4626 122.243 13.6476 121.133 14.8326C120.968 14.9976 120.818 15.1776 120.653 15.3426C120.548 15.4476 120.428 15.5526 120.308 15.6576C119.573 16.3176 118.823 16.9626 118.118 17.6226C113.558 21.8976 109.733 25.8576 109.733 25.8576V25.8876C109.703 25.9326 109.673 25.9776 109.643 26.0076M109.643 35.1426V31.9326C109.733 32.0376 109.808 32.1426 109.898 32.2326L110.543 32.8476C110.543 32.8476 110.933 33.1926 111.218 33.4476C110.708 33.9876 110.108 34.6326 109.628 35.1276M109.628 36.1026V35.9676C109.628 35.9676 109.673 35.9226 109.703 35.8926C109.778 35.8176 109.883 35.7276 109.988 35.6376C111.008 34.7226 112.823 33.1476 112.823 33.1476C113.693 32.3526 114.818 31.9776 115.928 32.0376C116.993 32.0826 118.043 32.5326 118.838 33.3576C118.598 33.6126 118.343 33.8526 118.118 34.1076C117.098 35.1576 116.198 36.1026 116.198 36.1026L116.483 36.4026L116.198 36.7026C116.198 36.7026 117.083 37.6476 118.118 38.7126C118.238 38.8326 118.373 38.9676 118.493 39.1026C117.758 39.7326 116.858 40.0776 115.928 40.1076C114.833 40.1526 113.723 39.7776 112.853 38.9826C112.808 38.9376 111.983 38.1276 111.128 37.3776C110.558 36.8676 109.988 36.3876 109.643 36.1026M109.643 40.9176V37.1676C109.898 37.4376 110.183 37.7526 110.468 38.0526C110.828 38.4276 111.203 38.8026 111.503 39.1026L110.558 39.9876L109.913 40.6026C109.808 40.6926 109.733 40.8126 109.643 40.9176ZM130.703 67.7976C120.458 67.7826 111.803 67.7826 109.613 67.7976V46.8126C109.613 46.8126 109.703 46.9176 109.763 46.9626L109.733 46.9926C109.733 46.9926 112.463 49.7376 116.033 53.1276C117.113 54.1476 118.298 55.2126 119.483 56.3076C119.663 56.4726 119.828 56.6226 119.993 56.7876C120.098 56.8926 120.203 57.0126 120.308 57.1326C120.968 57.8676 121.598 58.6176 122.258 59.3226C126.518 63.8676 130.463 67.6926 130.463 67.6926L130.493 67.6626C130.553 67.7226 130.613 67.7526 130.673 67.7976M140.078 67.8126C138.878 67.8126 137.678 67.8126 136.478 67.8126C136.598 67.7076 136.733 67.6176 136.838 67.4976L137.453 66.8526C137.453 66.8526 137.873 66.3876 138.188 66.0426C138.773 66.5826 139.523 67.3026 140.078 67.8276M140.948 67.8276H140.918C140.918 67.8276 140.828 67.7526 140.783 67.6926C140.708 67.6176 140.618 67.5126 140.528 67.4076C139.613 66.3876 138.038 64.5726 138.038 64.5726C137.243 63.7026 136.883 62.5776 136.928 61.4826C136.973 60.4776 137.378 59.4876 138.128 58.7076C138.323 58.9026 138.533 59.0976 138.728 59.2926C139.778 60.3126 140.738 61.1976 140.738 61.1976L141.038 60.9126L141.338 61.1976C141.338 61.1976 142.283 60.3126 143.348 59.2776C143.528 59.1126 143.708 58.9326 143.873 58.7676C144.578 59.5326 144.968 60.4926 145.013 61.4676C145.058 62.5626 144.683 63.6726 143.888 64.5426C143.843 64.5876 143.033 65.4126 142.283 66.2676C141.743 66.8676 141.233 67.4826 140.963 67.8126M145.643 67.8276C144.443 67.8276 143.228 67.8276 142.013 67.8276C142.298 67.5726 142.643 67.2576 142.973 66.9426C143.303 66.6276 143.633 66.2976 143.903 66.0276L144.623 66.8526L145.253 67.4976C145.373 67.6326 145.508 67.7226 145.643 67.8276ZM169.808 39.9576L170.738 40.8426L171.383 41.4576C172.043 42.0876 172.403 42.9276 172.433 43.7676C172.463 44.6076 172.163 45.4626 171.548 46.1376H171.533C171.533 46.1376 171.368 46.2726 171.098 46.5426C170.543 46.9626 169.883 47.1876 169.223 47.2026C168.368 47.2326 167.498 46.9326 166.823 46.3026L161.483 41.2926C161.783 40.9926 162.248 40.5276 162.743 40.0176C163.733 40.8726 164.948 41.3526 166.178 41.3676C167.483 41.3826 168.788 40.9176 169.823 39.9726M171.008 34.9326C171.608 35.4726 172.238 35.9826 172.568 36.2676C172.523 36.3126 172.478 36.3576 172.418 36.4176C172.343 36.4926 172.238 36.5826 172.133 36.6726C171.113 37.5876 169.298 39.1626 169.298 39.1626C168.428 39.9576 167.303 40.3176 166.208 40.2726C165.248 40.2276 164.318 39.8526 163.568 39.1926C163.718 39.0426 163.868 38.8776 164.018 38.7276C165.038 37.6626 165.923 36.7176 165.923 36.7176L165.638 36.4176L165.923 36.1176C165.923 36.1176 165.038 35.1726 164.018 34.1076C163.808 33.8826 163.583 33.6726 163.373 33.4476C164.153 32.6526 165.173 32.2326 166.208 32.1876C167.303 32.1426 168.413 32.5176 169.283 33.3126C169.328 33.3576 170.153 34.1676 171.008 34.9176M171.188 26.3376C171.398 26.5476 171.533 26.6826 171.533 26.6826H171.548C172.178 27.3276 172.463 28.1826 172.433 29.0376C172.403 29.8926 172.058 30.7176 171.383 31.3476L170.738 31.9626C170.738 31.9626 170.348 32.3376 170.048 32.6226C170.018 32.5926 169.988 32.5626 169.988 32.5626C168.923 31.5276 167.543 31.0326 166.163 31.0476C164.843 31.0626 163.538 31.5876 162.518 32.5776C162.098 32.1576 161.723 31.7676 161.468 31.5126L166.808 26.5026C167.483 25.8726 168.353 25.5726 169.208 25.6026C169.913 25.6326 170.603 25.8876 171.173 26.3376M139.433 16.9026C139.433 16.3626 139.478 15.8226 139.598 15.2976C139.838 14.2626 140.333 13.2726 141.053 12.4176C141.773 13.2726 142.268 14.2626 142.508 15.2976C142.628 15.8226 142.688 16.3626 142.673 16.9026C142.643 18.4326 142.073 19.9326 141.053 21.1776C140.033 19.9326 139.463 18.4326 139.433 16.9026ZM117.128 36.4176C117.983 35.6976 118.973 35.1876 120.008 34.9626C120.533 34.8426 121.073 34.7826 121.613 34.7976C123.143 34.8276 124.643 35.3976 125.888 36.4176C124.643 37.4376 123.143 38.0226 121.613 38.0376C120.893 38.0376 120.188 37.9476 119.498 37.7226C118.643 37.4676 117.848 37.0176 117.128 36.4176ZM130.628 36.6576C130.628 36.7776 130.643 36.8976 130.658 37.0026C130.658 37.0476 130.658 37.0776 130.658 37.1226C130.733 38.1876 130.973 39.2526 131.348 40.2726C131.123 40.0626 130.883 39.8376 130.643 39.6276C129.128 38.2176 127.598 36.8376 127.118 36.4026C127.598 35.9676 129.113 34.5876 130.643 33.1776C130.853 32.9826 131.078 32.7876 131.288 32.5776C130.943 33.5376 130.718 34.5276 130.658 35.5476C130.658 35.5926 130.658 35.6227 130.658 35.6676C130.658 35.7876 130.643 35.9076 130.628 36.0276C130.628 36.1326 130.628 36.2376 130.628 36.3426C130.628 36.4476 130.628 36.5526 130.628 36.6576ZM142.673 55.7826C142.673 56.3226 142.628 56.8626 142.508 57.3876C142.268 58.4226 141.773 59.3976 141.053 60.2676C140.333 59.3976 139.838 58.4226 139.598 57.3876C139.478 56.8626 139.418 56.3226 139.433 55.7826C139.463 54.2526 140.033 52.7526 141.053 51.5076C142.073 52.7526 142.643 54.2526 142.673 55.7826ZM140.318 46.7976C140.453 46.7976 140.588 46.8276 140.723 46.8276C140.828 46.8276 140.933 46.8276 141.038 46.8276C141.143 46.8276 141.248 46.8276 141.353 46.8276C141.473 46.8276 141.593 46.8126 141.698 46.7976C141.743 46.7976 141.773 46.7976 141.818 46.7976C142.823 46.7376 143.813 46.5276 144.773 46.1826C144.608 46.3626 144.428 46.5426 144.263 46.7376C142.853 48.2676 141.473 49.7826 141.038 50.2626C140.603 49.7826 139.223 48.2676 137.813 46.7376C137.648 46.5576 137.468 46.3626 137.303 46.1826C138.278 46.5276 139.283 46.7376 140.303 46.7976M141.848 26.0226C141.848 26.0226 141.803 26.0226 141.788 26.0226C141.638 26.0226 141.503 25.9926 141.368 25.9926C141.248 25.9926 141.143 25.9926 141.038 25.9926C140.933 25.9926 140.843 25.9926 140.738 25.9926C140.618 25.9926 140.483 26.0076 140.363 26.0226C140.348 26.0226 140.318 26.0226 140.303 26.0226C139.223 26.0976 138.158 26.3226 137.153 26.6976C137.378 26.4576 137.603 26.2026 137.843 25.9476C139.253 24.4176 140.633 22.9026 141.068 22.4226C141.503 22.9026 142.883 24.4176 144.293 25.9476C144.518 26.2026 144.758 26.4426 144.983 26.6976C143.978 26.3226 142.928 26.0976 141.878 26.0226M147.773 29.8326C149.153 31.3476 150.008 33.1626 150.263 35.0826C150.263 35.1276 150.263 35.1876 150.278 35.2326C150.308 35.4576 150.323 35.6826 150.338 35.9226C150.338 36.0726 150.338 36.2076 150.338 36.3426C150.338 36.4776 150.338 36.6276 150.338 36.7626C150.338 36.9876 150.308 37.2276 150.278 37.4526C150.278 37.4976 150.278 37.5576 150.263 37.6026C149.978 39.7476 148.973 41.8326 147.278 43.4226C145.823 44.6376 144.098 45.3726 142.298 45.5976C142.268 45.5976 142.253 45.5976 142.223 45.5976C141.968 45.6276 141.713 45.6426 141.458 45.6576C141.338 45.6576 141.218 45.6576 141.098 45.6576C140.963 45.6576 140.828 45.6576 140.693 45.6576C138.608 45.5676 136.553 44.8176 134.858 43.4226C133.148 41.8176 132.158 39.7476 131.873 37.6026C131.873 37.5576 131.873 37.4976 131.858 37.4526C131.828 37.2276 131.813 36.9876 131.798 36.7626C131.798 36.6276 131.798 36.4776 131.798 36.3426C131.798 36.2076 131.798 36.0576 131.798 35.9226C131.798 35.6976 131.828 35.4576 131.858 35.2326C131.858 35.1876 131.858 35.1276 131.873 35.0826C132.128 33.2226 132.938 31.4376 134.258 29.9376C135.833 28.3926 137.798 27.4776 139.838 27.2076C139.898 27.2076 139.958 27.2076 140.003 27.1926C140.213 27.1626 140.423 27.1476 140.633 27.1476C140.783 27.1476 140.933 27.1476 141.083 27.1476C141.203 27.1476 141.338 27.1476 141.473 27.1476C141.713 27.1476 141.953 27.1776 142.178 27.2076C142.223 27.2076 142.268 27.2076 142.313 27.2226C144.308 27.4776 146.213 28.3626 147.758 29.8476M151.478 36.0576C151.478 35.9376 151.463 35.8176 151.448 35.7126C151.448 35.6676 151.448 35.6376 151.448 35.5926C151.388 34.5876 151.178 33.6126 150.848 32.6526C151.043 32.8326 151.253 33.0276 151.448 33.2226C152.978 34.6326 154.493 36.0126 154.973 36.4476C154.493 36.8826 152.978 38.2626 151.448 39.6726C151.223 39.8826 150.983 40.0926 150.758 40.3176C151.133 39.2976 151.373 38.2476 151.448 37.1826C151.448 37.1376 151.448 37.1076 151.448 37.0626C151.448 36.9426 151.478 36.8226 151.478 36.7176C151.478 36.6126 151.478 36.5076 151.478 36.4026C151.478 36.2976 151.478 36.1926 151.478 36.0876M162.098 37.9176C161.573 38.0376 161.033 38.0976 160.493 38.0826C158.963 38.0526 157.463 37.4676 156.218 36.4626C157.463 35.4426 158.963 34.8726 160.493 34.8426C161.033 34.8426 161.573 34.8876 162.098 35.0076C163.133 35.2476 164.108 35.7426 164.978 36.4626C164.108 37.1826 163.133 37.6776 162.098 37.9176ZM143.288 55.8276C143.273 54.1026 142.688 52.3926 141.578 50.9526C141.938 50.5926 143.483 49.0326 144.998 47.4576C146.018 46.4076 147.008 45.3876 147.668 44.6976C147.818 44.5926 147.968 44.4726 148.103 44.3676C148.103 44.3676 148.118 44.3526 148.133 44.3376C148.448 44.0826 148.748 43.7976 149.033 43.4976L148.973 43.4376C149.618 42.8226 150.863 41.6226 152.138 40.3926C153.713 38.8626 155.258 37.3326 155.633 36.9726C157.073 38.0976 158.783 38.6826 160.508 38.6976C161.093 38.6976 161.678 38.6526 162.248 38.5326C162.548 38.4726 162.833 38.3976 163.133 38.3076C161.813 39.5976 160.403 40.9926 160.403 41.0076L160.328 40.9326C160.328 40.9326 158.363 42.8526 155.963 45.4176C155.243 46.1976 154.508 47.0526 153.728 47.9076C153.608 48.0276 153.503 48.1626 153.383 48.2676C153.308 48.3426 153.218 48.4176 153.128 48.4926C152.603 48.9576 152.048 49.3776 151.538 49.8426C148.253 52.8276 145.538 55.6326 145.538 55.6326L145.613 55.7076C145.613 55.7076 144.203 57.1176 142.913 58.4376C143.003 58.1526 143.078 57.8526 143.138 57.5676C143.243 56.9976 143.303 56.4126 143.303 55.8276M119.018 38.3076C119.303 38.3976 119.603 38.4726 119.903 38.5326C120.473 38.6526 121.058 38.6976 121.643 38.6976C123.368 38.6976 125.093 38.0976 126.518 36.9726C126.878 37.3326 128.438 38.8776 130.013 40.3926C131.273 41.6226 132.533 42.8226 133.178 43.4376L133.118 43.4976C133.403 43.7976 133.703 44.0676 134.018 44.3376C134.018 44.3376 134.033 44.3526 134.048 44.3676C134.198 44.4876 134.333 44.5926 134.483 44.6976C135.143 45.3876 136.133 46.4076 137.153 47.4576C138.683 49.0326 140.213 50.5926 140.573 50.9526C139.448 52.3926 138.863 54.1026 138.863 55.8276C138.863 56.4126 138.908 56.9976 139.028 57.5676C139.088 57.8676 139.163 58.1526 139.238 58.4376C137.948 57.1176 136.538 55.7076 136.538 55.7076L136.613 55.6326C136.613 55.6326 134.678 53.6826 132.113 51.2976C131.333 50.5776 130.463 49.8426 129.623 49.0776C129.503 48.9726 129.368 48.8526 129.248 48.7326C129.173 48.6576 129.098 48.5676 129.023 48.4776C128.558 47.9526 128.123 47.3976 127.658 46.8876C124.673 43.6176 121.838 40.9176 121.838 40.9176L121.763 40.9926C121.763 40.9926 120.353 39.5826 119.033 38.2926M110.993 46.5426C110.768 46.3176 110.618 46.1676 110.618 46.1676H110.588C109.973 45.5226 109.673 44.6676 109.703 43.8126C109.733 42.9576 110.078 42.1326 110.753 41.5026L111.398 40.8876C111.398 40.8876 112.013 40.3176 112.403 39.9576C113.438 40.8426 114.713 41.2926 115.988 41.2776C117.188 41.2626 118.373 40.8126 119.348 39.9876C119.873 40.5276 120.368 41.0226 120.683 41.3376L115.343 46.3476C114.668 46.9776 113.798 47.2776 112.943 47.2476C112.253 47.2176 111.578 46.9776 111.008 46.5276M129.173 64.5576C129.173 64.5576 129.173 64.6176 129.173 64.6326C127.628 63.0876 125.408 60.9276 122.978 58.6626C122.273 58.0026 121.523 57.3726 120.788 56.7126C120.668 56.6076 120.548 56.5026 120.443 56.3976C120.278 56.2326 120.128 56.0526 119.963 55.8876C118.868 54.7176 117.803 53.5326 116.768 52.4526C115.253 50.8626 113.873 49.4526 112.808 48.3576C112.838 48.3576 112.883 48.3576 112.913 48.3576C114.053 48.3876 115.208 47.9826 116.093 47.1276C116.093 47.1276 119.693 43.6926 121.328 42.1176C122.138 42.9426 124.373 45.1926 126.983 47.5626C127.493 48.0276 128.048 48.4626 128.573 48.9126C128.663 48.9876 128.738 49.0626 128.828 49.1376C128.948 49.2576 129.053 49.3776 129.173 49.5126C129.953 50.3676 130.688 51.2226 131.408 52.0026C133.193 53.9226 134.753 55.4826 135.413 56.1426L130.403 61.3776C129.548 62.2626 129.143 63.4176 129.173 64.5576ZM112.943 25.6326C113.798 25.6026 114.668 25.9026 115.343 26.5326L120.683 31.5426C120.443 31.7826 120.083 32.1426 119.708 32.5326C118.673 31.5126 117.338 30.9726 115.988 30.9576C114.623 30.9426 113.243 31.4526 112.193 32.4726C112.193 32.4726 112.148 32.5176 112.088 32.5776L111.398 31.9626L110.753 31.3626C110.093 30.7326 109.733 29.8926 109.718 29.0526C109.688 28.2126 109.988 27.3426 110.603 26.6826H110.618C110.618 26.6826 110.753 26.5626 111.008 26.3226C111.578 25.8876 112.253 25.6476 112.928 25.6326M129.158 8.20265C129.128 9.34265 129.533 10.4976 130.388 11.3826L135.398 16.6176C134.573 17.4276 132.308 19.6626 129.938 22.3026C129.473 22.8126 129.038 23.3676 128.573 23.9076C128.498 23.9976 128.423 24.0726 128.348 24.1626C128.228 24.2826 128.108 24.3876 127.973 24.5076C127.118 25.2876 126.263 26.0226 125.483 26.7576C123.563 28.5576 121.988 30.1176 121.328 30.7776L116.093 25.7676C115.208 24.9126 114.053 24.5076 112.913 24.5376C112.883 24.5376 112.868 24.5376 112.838 24.5376C114.383 22.9926 116.558 20.7576 118.838 18.3126C119.498 17.6076 120.128 16.8426 120.788 16.1076C120.893 15.9876 120.998 15.8676 121.103 15.7626C121.268 15.5976 121.448 15.4326 121.613 15.2826C122.798 14.1726 123.983 13.1226 125.063 12.0876C126.668 10.5576 128.078 9.17765 129.173 8.09765C129.173 8.12765 129.173 8.15765 129.173 8.20265M138.863 16.9476C138.863 18.6726 139.463 20.3826 140.573 21.8226C140.213 22.1826 138.668 23.7426 137.153 25.3176C135.923 26.5776 134.723 27.8376 134.108 28.4826L134.048 28.4226C133.748 28.7076 133.478 29.0076 133.208 29.3226C133.178 29.3526 133.148 29.3826 133.118 29.4126C133.043 29.5176 132.998 29.6226 132.923 29.7126C132.233 30.3726 131.123 31.4376 130.013 32.5176C128.438 34.0476 126.878 35.5926 126.518 35.9376C125.078 34.8126 123.368 34.2426 121.643 34.2276C121.058 34.2276 120.473 34.2726 119.903 34.3776C119.618 34.4376 119.318 34.5126 119.033 34.5876C120.353 33.2976 121.748 31.9026 121.748 31.9026L121.823 31.9776C121.823 31.9776 123.788 30.0276 126.173 27.4476C126.893 26.6676 127.643 25.7976 128.408 24.9426C128.513 24.8226 128.633 24.6876 128.753 24.5676C128.828 24.4926 128.918 24.4176 129.008 24.3426C129.533 23.8776 130.088 23.4426 130.598 22.9776C133.883 19.9776 136.598 17.1276 136.598 17.1276L136.523 17.0526C136.523 17.0526 137.933 15.6426 139.223 14.3226C139.133 14.6076 139.058 14.9076 138.998 15.1926C138.893 15.7626 138.833 16.3476 138.833 16.9326M145.538 17.1126C145.538 17.1126 147.473 19.0926 150.038 21.4926C150.818 22.2276 151.688 22.9626 152.528 23.7426C152.648 23.8626 152.783 23.9676 152.903 24.0876C152.978 24.1626 153.053 24.2526 153.128 24.3426C153.593 24.8826 154.028 25.4376 154.493 25.9476C157.478 29.2476 160.313 31.9776 160.313 31.9776L160.388 31.9026C160.388 31.9026 161.783 33.3126 163.103 34.5876C162.818 34.4976 162.533 34.4226 162.233 34.3776C161.663 34.2726 161.078 34.2126 160.493 34.2276C158.768 34.2426 157.058 34.8276 155.618 35.9376C155.258 35.5776 153.698 34.0326 152.123 32.5176C151.058 31.4826 150.008 30.4776 149.303 29.8026C149.213 29.6676 149.093 29.5476 149.003 29.4276H149.018C149.018 29.4276 148.928 29.3226 148.883 29.2776C148.628 28.9776 148.373 28.6926 148.088 28.4076L148.028 28.4676C147.413 27.8226 146.213 26.5626 144.983 25.3026C143.453 23.7276 141.908 22.1676 141.548 21.8076C142.673 20.3676 143.258 18.6576 143.273 16.9326C143.273 16.3476 143.228 15.7626 143.123 15.1926C143.063 14.8926 142.988 14.6076 142.898 14.3226C144.188 15.6426 145.583 17.0376 145.583 17.0376L145.508 17.1126H145.538ZM152.993 8.18764C152.993 8.18764 152.993 8.14265 152.993 8.12765C154.538 9.67265 156.758 11.8626 159.188 14.1426C159.893 14.8026 160.643 15.4326 161.378 16.1076C161.498 16.2126 161.618 16.3176 161.723 16.4226C161.888 16.5876 162.053 16.7676 162.203 16.9326C163.298 18.1176 164.363 19.3026 165.398 20.3976C166.928 22.0026 168.308 23.4276 169.373 24.5226C169.328 24.5226 169.298 24.5226 169.253 24.5226C168.113 24.4926 166.958 24.8976 166.073 25.7526L160.838 30.7626C160.028 29.9226 157.793 27.6576 155.183 25.2726C154.673 24.8076 154.118 24.3726 153.593 23.9076C153.503 23.8326 153.428 23.7576 153.338 23.6826C153.218 23.5626 153.113 23.4276 152.993 23.3076C152.228 22.4526 151.493 21.5826 150.758 20.8026C148.973 18.8676 147.413 17.2926 146.753 16.6326L151.763 11.3826C152.618 10.4976 153.023 9.34265 152.993 8.20265M152.993 64.5576C153.023 63.4176 152.618 62.2626 151.763 61.3776L146.753 56.1426C147.578 55.3326 149.843 53.1126 152.213 50.5176C152.678 50.0076 153.113 49.4526 153.578 48.9276C153.653 48.8376 153.728 48.7626 153.803 48.6726C153.923 48.5526 154.043 48.4476 154.178 48.3426C155.033 47.5776 155.888 46.8426 156.668 46.1226C158.588 44.3376 160.163 42.7926 160.823 42.1326L166.058 47.1426C166.943 47.9976 168.098 48.4026 169.238 48.3726C169.253 48.3726 169.283 48.3726 169.298 48.3726C167.753 49.9176 165.578 52.1226 163.313 54.5376C162.653 55.2426 162.023 55.9926 161.348 56.7276C161.243 56.8476 161.138 56.9676 161.033 57.0726C160.868 57.2376 160.688 57.4026 160.523 57.5526C159.338 58.6476 158.153 59.6976 157.073 60.7326C155.468 62.2476 154.058 63.6276 152.963 64.6926C152.963 64.6476 152.963 64.6176 152.963 64.5726M150.758 66.8526L150.788 66.8826C150.113 67.4976 149.258 67.7976 148.418 67.7676C147.563 67.7376 146.738 67.3927 146.108 66.7177L145.508 66.0726L144.728 65.1726C145.688 64.1226 146.168 62.7876 146.138 61.4676C146.123 60.2076 145.628 58.9627 144.728 57.9576C145.208 57.4776 145.643 57.0576 145.928 56.7726L150.938 62.1126C151.568 62.7876 151.868 63.6576 151.838 64.5126C151.808 65.2177 151.568 65.9076 151.103 66.4776C150.893 66.6876 150.758 66.8226 150.758 66.8226M131.318 66.8226C131.318 66.8226 131.183 66.6726 130.928 66.4176C130.493 65.8476 130.253 65.1877 130.238 64.5126C130.208 63.6576 130.508 62.7876 131.138 62.1126L136.148 56.7726C136.418 57.0426 136.823 57.4476 137.288 57.8976C136.358 58.9026 135.848 60.1776 135.833 61.4676C135.818 62.8176 136.313 64.1826 137.333 65.2326L136.598 66.0576L135.998 66.7026C135.368 67.3626 134.528 67.7226 133.688 67.7526C132.848 67.7826 131.993 67.4826 131.318 66.8676V66.8376V66.8226ZM131.333 5.89264V5.86265C131.978 5.24765 132.833 4.94765 133.688 4.97765C134.543 5.00765 135.368 5.35264 135.998 6.02765L136.613 6.67265C136.613 6.67265 137.078 7.16764 137.408 7.52765C136.433 8.57765 135.953 9.91265 135.983 11.2476C135.998 12.5076 136.493 13.7526 137.393 14.7576C136.898 15.2376 136.463 15.6726 136.178 15.9576L131.168 10.6176C130.538 9.94265 130.238 9.07265 130.268 8.21765C130.283 7.52765 130.538 6.83765 130.988 6.26764C131.213 6.04264 131.348 5.89264 131.348 5.89264M150.788 5.89264C150.788 5.89264 150.938 6.04265 151.208 6.32765C151.628 6.88265 151.853 7.54265 151.883 8.21765C151.913 9.07265 151.613 9.94265 150.983 10.6176L145.973 15.9576C145.703 15.6876 145.298 15.2826 144.833 14.8326C145.778 13.8276 146.288 12.5526 146.303 11.2476C146.318 9.89765 145.823 8.53265 144.818 7.48265L145.553 6.65765L146.153 6.01265C146.783 5.35265 147.623 4.99265 148.463 4.96265C149.303 4.93265 150.158 5.23265 150.833 5.84765L150.803 5.87765L150.788 5.89264ZM106.718 71.5026C106.868 71.3226 107.033 71.1126 107.183 70.8876C107.288 70.7376 107.348 70.5726 107.438 70.3926C107.453 70.3626 107.468 70.3476 107.483 70.3176C107.513 70.2876 107.558 70.2726 107.588 70.2426C107.843 70.0776 108.083 69.9426 108.308 69.7776C108.818 69.3876 109.208 69.0126 109.388 68.8476C111.248 68.8476 121.343 68.8476 132.953 68.8326C133.208 68.8626 133.448 68.8926 133.703 68.8926C133.868 68.8926 134.018 68.8626 134.183 68.8326C138.533 68.8326 143.063 68.8176 147.413 68.7876H147.578C147.848 68.8476 148.103 68.8776 148.373 68.8776C148.718 68.8776 149.048 68.8476 149.393 68.7726C160.868 68.7276 170.798 68.6376 172.658 68.6226L172.553 68.7276C172.553 68.7276 173.033 69.2376 173.738 69.7626C173.963 69.9277 174.218 70.0626 174.458 70.2276C174.488 70.2576 174.533 70.2726 174.563 70.3026C174.578 70.3176 174.593 70.3476 174.608 70.3776C174.713 70.5426 174.758 70.7076 174.863 70.8726C175.073 71.1876 175.313 71.4726 175.523 71.6976C171.983 71.6676 160.688 71.5926 148.148 71.5476C131.138 71.4876 111.893 71.4876 106.688 71.4876M177.203 19.9926C177.233 9.04264 177.233 0.732645 177.233 0.732645V0.192645H176.708L105.353 0.117645H104.753V0.717645L104.828 72.6126H105.368C105.368 72.6126 128.318 72.6126 148.178 72.5526C161.558 72.5076 173.528 72.4176 176.168 72.3876C176.243 72.4626 176.288 72.4926 176.288 72.4926L176.408 72.3726C176.618 72.3726 176.723 72.3726 176.723 72.3726H177.038V72.0576C177.038 72.0576 177.038 71.9376 177.038 71.7426L177.158 71.6226C177.158 71.6226 177.113 71.5776 177.038 71.4876C177.038 70.4827 177.038 68.1576 177.038 64.9026C177.038 54.5076 177.188 34.7976 177.233 19.9476M220.103 165.808C213.473 165.043 213.473 161.458 213.473 154.618V129.418C213.473 121.378 212.273 118.993 210.968 117.253C208.253 113.458 204.773 111.823 199.448 111.823C192.383 111.823 185.213 115.408 177.173 123.988C176.633 117.688 176.183 116.383 174.563 113.008L156.863 114.208V115.723C163.268 116.698 163.268 119.953 163.268 126.913V154.618C163.268 161.458 163.268 164.938 156.863 165.808V167.323H183.698V165.808C177.173 164.938 177.173 161.578 177.173 154.618V141.148C177.173 135.613 177.713 132.358 180.323 128.008C182.708 124.213 187.823 121.048 192.263 121.048C194.768 121.048 197.153 122.563 198.353 124.858C198.893 125.938 199.433 127.363 199.433 133.228V154.633C199.433 161.473 199.433 164.953 193.028 165.823V167.338H220.073V165.823L220.103 165.808ZM266.153 141.373C266.153 145.498 265.508 150.823 262.793 155.278C260.408 159.298 255.953 162.223 250.958 162.223C239.663 162.223 235.103 149.293 235.103 138.223C235.103 134.968 235.538 128.983 238.583 124.213C241.073 120.523 245.423 118.243 250.208 118.243C260.633 118.243 266.183 128.023 266.183 141.373M281.168 139.303C281.168 123.988 270.083 111.823 251.408 111.823C232.733 111.823 220.133 123.553 220.133 140.713C220.133 154.618 229.358 168.523 250.118 168.523C263.258 168.523 281.183 161.353 281.183 139.303"
              fill="#000000"/>
    </g>
    <defs>
        <clipPath id="clip0_12_356">
            <rect width="280.245" height="205.29" fill="white" transform="translate(0.877502 0.117645)"/>
        </clipPath>
    </defs>
</svg>
