<svg width="226" height="93" viewBox="0 0 226 93" fill="none" xmlns="http://www.w3.org/2000/svg">
    <g clip-path="url(#clip0_12_907)">
        <g clip-path="url(#clip1_12_907)">
            <path d="M29.1005 35.3563L19.2602 35.9081L19.233 31.0906C19.233 26.4028 21.0876 23.9059 24.0224 23.9059C27.1134 23.9059 28.1529 27.1309 28.1529 29.8538L30.1943 29.8006C30.1943 29.8006 31.2065 20.006 31.1997 20.006C28.5707 19.5838 25.8397 19.3677 23.0951 19.3677C18.6929 19.3677 14.2092 20.1257 10.3471 22.5428C6.25407 25.1128 5.47961 27.7626 5.01426 32.2244C5.00067 32.3806 5.22147 36.736 0.5 37.5206V41.1645L4.82744 40.9285L4.78328 64.4409C4.70516 68.374 3.39401 70.3389 0.533959 70.4919V72.3836H24.2534V70.4919C18.8458 70.4919 19.2296 66.1797 19.2296 62.1734L19.2568 40.0973C19.2568 40.0973 26.6005 39.3426 26.3492 42.2351C26.3492 42.2384 28.3703 42.1952 28.3703 42.1952L29.0971 35.3596L29.1005 35.3563Z"
                  fill="#000000"/>
            <path d="M45.1332 65.8007C42.5075 65.8007 40.962 63.4568 40.962 61.1129C40.962 58.3135 43.3567 55.4409 45.6767 54.0046C47.7623 52.6448 49.926 52.1893 52.3207 51.8103C52.3988 56.425 51.5462 65.8007 45.1332 65.8007ZM66.767 62.1701V48.4058C66.767 44.3231 66.8452 39.6319 63.0578 36.8358C60.123 34.5683 55.0992 34.1128 51.4681 34.1128C46.3696 34.1128 31.2303 35.2399 31.2303 35.2399L29.6848 47.6145L31.7942 47.558C34.1889 42.039 39.1753 38.558 45.4355 38.558C47.5211 38.558 49.7629 38.937 51.3085 40.5229C52.623 41.9592 52.3173 45.0745 52.2392 46.8897V47.4948C43.0442 48.8547 26.5089 52.1096 26.5089 63.8292C26.5089 70.0298 32.3037 73.3578 38.0985 73.3578C42.8132 73.3578 49.4572 71.3164 52.2392 67.3068C52.7045 69.1986 53.4756 71.0139 54.943 72.3737H71.0129V70.4819C66.2983 70.0264 66.7636 65.6412 66.7636 62.1635"
                  fill="#000000"/>
            <path d="M112.144 64.4377V34.4887L93.1358 35.5459V37.4377C96.845 37.5906 97.6942 40.2371 97.6942 44.4728V49.0875C97.6942 53.7022 97.4632 57.1799 96.2268 60.355C95.2214 62.925 93.0611 65.1958 90.1229 65.1958C87.9592 65.1958 86.4137 64.1385 86.4137 59.4473V34.4887L67.7146 35.5459V37.4377C70.5713 37.5906 71.9639 39.5555 71.9639 43.4887V61.3358C71.9639 64.5109 71.8858 67.5364 73.9714 70.1097C75.9042 72.4536 78.8389 73.3613 81.7737 73.3613C87.8776 73.3613 93.7506 69.9568 97.6908 65.5715C97.7689 67.9154 97.8471 70.1862 98.6181 72.3771H116.312V70.4854C113.452 70.3358 112.141 68.3675 112.141 64.4344"
                  fill="#000000"/>
            <path d="M162.331 64.3645V46.9695C162.331 38.6511 160.242 34.4154 151.978 34.1128C145.721 34.1128 140.31 37.3644 136.601 41.6766C136.057 39.2562 135.83 36.6862 134.437 34.4919L117.98 35.5491V37.4409C120.84 37.5905 122.151 39.5587 122.151 43.4919V64.3645C122.151 68.3741 120.836 70.339 117.98 70.4919V72.3837H141.237V70.4919C138.377 70.339 136.601 68.3741 136.601 64.3645V54.7593C136.601 52.1893 136.832 48.7848 137.99 46.4409C138.995 44.2466 141.468 42.2817 144.247 42.2817C148.265 42.2817 147.803 47.2721 147.878 49.8454V64.3645C147.878 68.3741 146.332 70.339 143.472 70.4919V72.3837H166.577V70.4919C163.717 70.339 162.328 68.3741 162.328 64.3645"
                  fill="#000000"/>
            <path d="M188.9 67.5395C182.025 67.6159 180.48 57.2561 180.48 52.2624C180.48 47.6477 181.638 39.8612 187.898 39.8612C194.158 39.8612 195.779 49.2402 195.779 54.9122C195.779 58.3167 194.773 67.4663 188.904 67.5428M188.751 34.1161C176.234 34.1161 165.031 41.3008 165.031 54.6129C165.031 60.4345 167.348 66.2594 172.293 69.4345C176.699 72.3071 182.881 73.3677 188.054 73.3677C200.106 73.3677 211.234 66.8645 211.234 53.8549C211.234 40.8453 201.111 34.1161 188.751 34.1161Z"
                  fill="#000000"/>
            <path d="M222.256 69.5709H218.866V69.2384C219.114 69.2218 219.277 69.1852 219.277 68.9558C219.277 68.6233 218.829 67.7256 217.932 66.6385L217.647 66.7083V68.3939C217.647 68.9392 217.684 69.2018 218.241 69.2384V69.5709H215.011V69.2384C215.459 69.1486 215.531 68.9924 215.531 68.3939V64.4076C215.531 63.8091 215.459 63.6695 215.011 63.5631V63.2473H219.298C220.266 63.2473 220.731 63.3005 221.037 63.5797C221.111 63.6329 221.397 63.8956 221.397 64.3344C221.397 65.262 220.446 65.7408 219.997 65.9669C220.965 67.0906 221.325 67.9684 221.594 68.6333C221.828 69.1952 222.079 69.2151 222.26 69.2318V69.5642L222.256 69.5709ZM218.363 59.3972C214.427 59.3972 211.23 62.5258 211.23 66.3792C211.23 70.2325 214.427 73.3644 218.363 73.3644C222.3 73.3644 225.5 70.2358 225.5 66.3792C225.5 62.5225 222.304 59.3972 218.363 59.3972Z"
                  fill="#000000"/>
            <path d="M218.309 63.9522C217.647 63.9522 217.647 64.2481 217.647 64.6005V65.9005C218.741 65.6378 219.226 65.1956 219.226 64.6537C219.226 64.1617 218.778 63.9522 218.309 63.9522Z"
                  fill="#000000"/>
        </g>
    </g>
    <defs>
        <clipPath id="clip0_12_907">
            <rect width="225" height="92.5" fill="white" transform="translate(0.5 0.117676)"/>
        </clipPath>
        <clipPath id="clip1_12_907">
            <rect width="225" height="76.5" fill="white" transform="translate(0.5 8.11768)"/>
        </clipPath>
    </defs>
</svg>
